<?xml version="1.0" encoding="UTF-8"?>
<svg viewBox="0 0 273.20471 287.61725" xmlns="http://www.w3.org/2000/svg" xmlns:xlink="http://www.w3.org/1999/xlink">
 <defs>
  <filter id="l">
   <feGaussianBlur stdDeviation="2.6663"/>
  </filter>
  <linearGradient id="a">
   <stop stop-color="#b3b3b3" offset="0"/>
   <stop stop-color="#fffcfc" offset=".5"/>
   <stop stop-color="#bbb" offset="1"/>
  </linearGradient>
  <linearGradient id="k" x1="211.63" x2="225.4" gradientUnits="userSpaceOnUse" xlink:href="#a"/>
  <linearGradient id="j" x1="428.41" x2="442.18" gradientUnits="userSpaceOnUse" xlink:href="#a"/>
  <linearGradient id="i" x1="404.32" x2="418.09" gradientUnits="userSpaceOnUse" xlink:href="#a"/>
  <linearGradient id="h" x1="380.24" x2="394.01" gradientUnits="userSpaceOnUse" xlink:href="#a"/>
  <linearGradient id="g" x1="356.15" x2="369.92" gradientUnits="userSpaceOnUse" xlink:href="#a"/>
  <linearGradient id="f" x1="332.06" x2="345.83" gradientUnits="userSpaceOnUse" xlink:href="#a"/>
  <linearGradient id="e" x1="307.97" x2="321.74" gradientUnits="userSpaceOnUse" xlink:href="#a"/>
  <linearGradient id="d" x1="283.89" x2="297.66" gradientUnits="userSpaceOnUse" xlink:href="#a"/>
  <linearGradient id="c" x1="259.8" x2="273.57" gradientUnits="userSpaceOnUse" xlink:href="#a"/>
  <linearGradient id="b" x1="235.71" x2="249.48" gradientUnits="userSpaceOnUse" xlink:href="#a"/>
 </defs>
 <g transform="translate(-14.839 -328.55)">
  <g transform="translate(-177.57 19.544)" filter="url(#l)" opacity=".319">
   <path d="m211.58 334.01c-4.7486 0-8.5625 3.8139-8.5625 8.5625v238.56c0 4.7486 3.8139 8.5938 8.5625 8.5938h238.56c4.7486 0 8.5625-3.8452 8.5625-8.5938v-238.56c0-4.7486-3.8139-8.5625-8.5625-8.5625h-238.56zm11.219 10.281c3.717 0 6.7188 3.033 6.7188 6.75s-3.0017 6.7188-6.7188 6.7188-6.7188-3.0017-6.7188-6.7188 3.0017-6.75 6.7188-6.75zm24.25 0c3.717 0 6.7188 3.033 6.7188 6.75s-3.0017 6.7188-6.7188 6.7188-6.75-3.0017-6.75-6.7188 3.033-6.75 6.75-6.75zm23.719 0c3.717 0 6.75 3.033 6.75 6.75s-3.033 6.7188-6.75 6.7188-6.7188-3.0017-6.7188-6.7188 3.0017-6.75 6.7188-6.75zm23.781 0c3.717 0 6.7188 3.033 6.7188 6.75s-3.0017 6.7188-6.7188 6.7188-6.7188-3.0017-6.7188-6.7188 3.0017-6.75 6.7188-6.75zm23.906 0c3.717 0 6.75 3.033 6.75 6.75s-3.033 6.7188-6.75 6.7188-6.7188-3.0017-6.7188-6.7188 3.0017-6.75 6.7188-6.75zm24.062 0c3.717 0 6.7188 3.033 6.7188 6.75s-3.0017 6.7188-6.7188 6.7188-6.75-3.0017-6.75-6.7188 3.033-6.75 6.75-6.75zm24.188 0c3.717 0 6.75 3.033 6.75 6.75s-3.033 6.7188-6.75 6.7188-6.7188-3.0017-6.7188-6.7188 3.0017-6.75 6.7188-6.75zm24.281 0c3.717 0 6.75 3.033 6.75 6.75s-3.033 6.7188-6.75 6.7188-6.7188-3.0017-6.7188-6.7188 3.0017-6.75 6.7188-6.75zm23.688 0c3.717 0 6.7188 3.033 6.7188 6.75s-3.0017 6.7188-6.7188 6.7188-6.75-3.0017-6.75-6.7188 3.033-6.75 6.75-6.75zm23.781 0c3.717 0 6.75 3.033 6.75 6.75s-3.033 6.7188-6.75 6.7188-6.7188-3.0017-6.7188-6.7188 3.0017-6.75 6.7188-6.75z" stroke="#000"/>
   <path d="m210.15 333.29c-4.7486 0-8.5625 3.8139-8.5625 8.5625v238.56c0 4.7486 3.8139 8.5938 8.5625 8.5938h238.56c4.7486 0 8.5625-3.8452 8.5625-8.5938v-238.56c0-4.7486-3.8139-8.5625-8.5625-8.5625h-238.56zm11.219 10.281c3.717 0 6.7188 3.033 6.7188 6.75s-3.0017 6.7188-6.7188 6.7188-6.7188-3.0017-6.7188-6.7188 3.0017-6.75 6.7188-6.75zm24.25 0c3.717 0 6.7188 3.033 6.7188 6.75s-3.0017 6.7188-6.7188 6.7188-6.75-3.0017-6.75-6.7188 3.033-6.75 6.75-6.75zm23.719 0c3.717 0 6.75 3.033 6.75 6.75s-3.033 6.7188-6.75 6.7188-6.7188-3.0017-6.7188-6.7188 3.0017-6.75 6.7188-6.75zm23.781 0c3.717 0 6.7188 3.033 6.7188 6.75s-3.0017 6.7188-6.7188 6.7188-6.7188-3.0017-6.7188-6.7188 3.0017-6.75 6.7188-6.75zm23.906 0c3.717 0 6.75 3.033 6.75 6.75s-3.033 6.7188-6.75 6.7188-6.7188-3.0017-6.7188-6.7188 3.0017-6.75 6.7188-6.75zm24.062 0c3.717 0 6.7188 3.033 6.7188 6.75s-3.0017 6.7188-6.7188 6.7188-6.75-3.0017-6.75-6.7188 3.033-6.75 6.75-6.75zm24.188 0c3.717 0 6.75 3.033 6.75 6.75s-3.033 6.7188-6.75 6.7188-6.7188-3.0017-6.7188-6.7188 3.0017-6.75 6.7188-6.75zm24.281 0c3.717 0 6.75 3.033 6.75 6.75s-3.033 6.7188-6.75 6.7188-6.7188-3.0017-6.7188-6.7188 3.0017-6.75 6.7188-6.75zm23.688 0c3.717 0 6.7188 3.033 6.7188 6.75s-3.0017 6.7188-6.7188 6.7188-6.75-3.0017-6.75-6.7188 3.033-6.75 6.75-6.75zm23.781 0c3.717 0 6.75 3.033 6.75 6.75s-3.033 6.7188-6.75 6.7188-6.7188-3.0017-6.7188-6.7188 3.0017-6.75 6.7188-6.75z" stroke="#b3b3b3"/>
   <path d="m209.44 331.87c-4.7486 0-8.5625 3.8139-8.5625 8.5625v238.56c0 4.7486 3.8139 8.5938 8.5625 8.5938h238.56c4.7486 0 8.5625-3.8452 8.5625-8.5938v-238.56c0-4.7486-3.8139-8.5625-8.5625-8.5625h-238.56zm11.219 10.281c3.717 0 6.7188 3.033 6.7188 6.75s-3.0017 6.7188-6.7188 6.7188-6.7188-3.0017-6.7188-6.7188 3.0017-6.75 6.7188-6.75zm24.25 0c3.717 0 6.7188 3.033 6.7188 6.75s-3.0017 6.7188-6.7188 6.7188-6.75-3.0017-6.75-6.7188 3.033-6.75 6.75-6.75zm23.719 0c3.717 0 6.75 3.033 6.75 6.75s-3.033 6.7188-6.75 6.7188-6.7188-3.0017-6.7188-6.7188 3.0017-6.75 6.7188-6.75zm23.781 0c3.717 0 6.7188 3.033 6.7188 6.75s-3.0017 6.7188-6.7188 6.7188-6.7188-3.0017-6.7188-6.7188 3.0017-6.75 6.7188-6.75zm23.906 0c3.717 0 6.75 3.033 6.75 6.75s-3.033 6.7188-6.75 6.7188-6.7188-3.0017-6.7188-6.7188 3.0017-6.75 6.7188-6.75zm24.062 0c3.717 0 6.7188 3.033 6.7188 6.75s-3.0017 6.7188-6.7188 6.7188-6.75-3.0017-6.75-6.7188 3.033-6.75 6.75-6.75zm24.188 0c3.717 0 6.75 3.033 6.75 6.75s-3.033 6.7188-6.75 6.7188-6.7188-3.0017-6.7188-6.7188 3.0017-6.75 6.7188-6.75zm24.281 0c3.717 0 6.75 3.033 6.75 6.75s-3.033 6.7188-6.75 6.7188-6.7188-3.0017-6.7188-6.7188 3.0017-6.75 6.7188-6.75zm23.688 0c3.717 0 6.7188 3.033 6.7188 6.75s-3.0017 6.7188-6.7188 6.7188-6.75-3.0017-6.75-6.7188 3.033-6.75 6.75-6.75zm23.781 0c3.717 0 6.75 3.033 6.75 6.75s-3.033 6.7188-6.75 6.7188-6.7188-3.0017-6.7188-6.7188 3.0017-6.75 6.7188-6.75z" stroke="#999"/>
   <path d="m207.86 331.66c-4.7486 0-8.5625 3.8139-8.5625 8.5625v238.56c0 4.7486 3.8139 8.5938 8.5625 8.5938h238.56c4.7486 0 8.5625-3.8452 8.5625-8.5938v-238.56c0-4.7486-3.8139-8.5625-8.5625-8.5625h-238.56zm11.219 10.281c3.717 0 6.7188 3.033 6.7188 6.75s-3.0017 6.7188-6.7188 6.7188-6.7188-3.0017-6.7188-6.7188 3.0017-6.75 6.7188-6.75zm24.25 0c3.717 0 6.7188 3.033 6.7188 6.75s-3.0017 6.7188-6.7188 6.7188-6.75-3.0017-6.75-6.7188 3.033-6.75 6.75-6.75zm23.719 0c3.717 0 6.75 3.033 6.75 6.75s-3.033 6.7188-6.75 6.7188-6.7188-3.0017-6.7188-6.7188 3.0017-6.75 6.7188-6.75zm23.781 0c3.717 0 6.7188 3.033 6.7188 6.75s-3.0017 6.7188-6.7188 6.7188-6.7188-3.0017-6.7188-6.7188 3.0017-6.75 6.7188-6.75zm23.906 0c3.717 0 6.75 3.033 6.75 6.75s-3.033 6.7188-6.75 6.7188-6.7188-3.0017-6.7188-6.7188 3.0017-6.75 6.7188-6.75zm24.062 0c3.717 0 6.7188 3.033 6.7188 6.75s-3.0017 6.7188-6.7188 6.7188-6.75-3.0017-6.75-6.7188 3.033-6.75 6.75-6.75zm24.188 0c3.717 0 6.75 3.033 6.75 6.75s-3.033 6.7188-6.75 6.7188-6.7188-3.0017-6.7188-6.7188 3.0017-6.75 6.7188-6.75zm24.281 0c3.717 0 6.75 3.033 6.75 6.75s-3.033 6.7188-6.75 6.7188-6.7188-3.0017-6.7188-6.7188 3.0017-6.75 6.7188-6.75zm23.688 0c3.717 0 6.7188 3.033 6.7188 6.75s-3.0017 6.7188-6.7188 6.7188-6.75-3.0017-6.75-6.7188 3.033-6.75 6.75-6.75zm23.781 0c3.717 0 6.75 3.033 6.75 6.75s-3.033 6.7188-6.75 6.7188-6.7188-3.0017-6.7188-6.7188 3.0017-6.75 6.7188-6.75z" stroke="#000"/>
   <g transform="translate(.14793,-.4438)" stroke="#000" stroke-linecap="round" stroke-linejoin="round" stroke-width=".91317">
    <path d="m218.51 316.31a6.4286 8.5714 0 0 1 6.4286 8.5714v19.786a6.4286 8.5714 0 0 1 -6.4286 8.5714 6.4286 8.5714 0 0 1 -6.4286 -8.5714v-19.786a6.4286 8.5714 0 0 1 6.4286 -8.5714"/>
    <path d="m435.3 316.31a6.4286 8.5714 0 0 1 6.4286 8.5714v19.786a6.4286 8.5714 0 0 1 -6.4286 8.5714 6.4286 8.5714 0 0 1 -6.4286 -8.5714v-19.786a6.4286 8.5714 0 0 1 6.4286 -8.5714"/>
    <path d="m411.21 316.31a6.4286 8.5714 0 0 1 6.4286 8.5714v19.786a6.4286 8.5714 0 0 1 -6.4286 8.5714 6.4286 8.5714 0 0 1 -6.4286 -8.5714v-19.786a6.4286 8.5714 0 0 1 6.4286 -8.5714"/>
    <path d="m387.12 316.31a6.4286 8.5714 0 0 1 6.4286 8.5714v19.786a6.4286 8.5714 0 0 1 -6.4286 8.5714 6.4286 8.5714 0 0 1 -6.4286 -8.5714v-19.786a6.4286 8.5714 0 0 1 6.4286 -8.5714"/>
    <path d="m363.03 316.31a6.4286 8.5714 0 0 1 6.4286 8.5714v19.786a6.4286 8.5714 0 0 1 -6.4286 8.5714 6.4286 8.5714 0 0 1 -6.4286 -8.5714v-19.786a6.4286 8.5714 0 0 1 6.4286 -8.5714"/>
    <path d="m338.95 316.31a6.4286 8.5714 0 0 1 6.4286 8.5714v19.786a6.4286 8.5714 0 0 1 -6.4286 8.5714 6.4286 8.5714 0 0 1 -6.4286 -8.5714v-19.786a6.4286 8.5714 0 0 1 6.4286 -8.5714"/>
    <path d="m314.86 316.31a6.4286 8.5714 0 0 1 6.4286 8.5714v19.786a6.4286 8.5714 0 0 1 -6.4286 8.5714 6.4286 8.5714 0 0 1 -6.4286 -8.5714v-19.786a6.4286 8.5714 0 0 1 6.4286 -8.5714"/>
    <path d="m290.77 316.31a6.4286 8.5714 0 0 1 6.4286 8.5714v19.786a6.4286 8.5714 0 0 1 -6.4286 8.5714 6.4286 8.5714 0 0 1 -6.4286 -8.5714v-19.786a6.4286 8.5714 0 0 1 6.4286 -8.5714"/>
    <path d="m266.69 316.31a6.4286 8.5714 0 0 1 6.4286 8.5714v19.786a6.4286 8.5714 0 0 1 -6.4286 8.5714 6.4286 8.5714 0 0 1 -6.4286 -8.5714v-19.786a6.4286 8.5714 0 0 1 6.4286 -8.5714"/>
    <path d="m242.6 316.31a6.4286 8.5714 0 0 1 6.4286 8.5714v19.786a6.4286 8.5714 0 0 1 -6.4286 8.5714 6.4286 8.5714 0 0 1 -6.4286 -8.5714v-19.786a6.4286 8.5714 0 0 1 6.4286 -8.5714"/>
   </g>
   <path d="m450.03 332.44c2.3213 7.1454 3.5312 14.517 3.5312 22.062 0 64.302-88.246 116.44-197.12 116.44-19.866 0-39.042-1.7406-57.125-4.9688v112.81c0 4.7486 3.8139 8.5938 8.5625 8.5938h238.56c4.7486 0 8.5625-3.8452 8.5625-8.5938v-238.56c0-3.4526-2.043-6.4236-4.9688-7.7812z" opacity=".2509"/>
  </g>
  <path d="m30.977 350.52c-4.7486 0-8.5625 3.8139-8.5625 8.5625v238.56c0 4.7486 3.8139 8.5938 8.5625 8.5938h238.56c4.7486 0 8.5625-3.8452 8.5625-8.5938v-238.56c0-4.7486-3.8139-8.5625-8.5625-8.5625h-238.56zm11.219 10.281c3.717 0 6.7188 3.033 6.7188 6.75s-3.0017 6.7188-6.7188 6.7188-6.7188-3.0017-6.7188-6.7188 3.0017-6.75 6.7188-6.75zm24.25 0c3.717 0 6.7188 3.033 6.7188 6.75s-3.0017 6.7188-6.7188 6.7188-6.75-3.0017-6.75-6.7188 3.033-6.75 6.75-6.75zm23.719 0c3.717 0 6.75 3.033 6.75 6.75s-3.033 6.7188-6.75 6.7188-6.7188-3.0017-6.7188-6.7188 3.0017-6.75 6.7188-6.75zm23.781 0c3.717 0 6.7188 3.033 6.7188 6.75s-3.0017 6.7188-6.7188 6.7188-6.7188-3.0017-6.7188-6.7188 3.0017-6.75 6.7188-6.75zm23.906 0c3.717 0 6.75 3.033 6.75 6.75s-3.033 6.7188-6.75 6.7188-6.7188-3.0017-6.7188-6.7188 3.0017-6.75 6.7188-6.75zm24.062 0c3.717 0 6.7188 3.033 6.7188 6.75s-3.0017 6.7188-6.7188 6.7188-6.75-3.0017-6.75-6.7188 3.033-6.75 6.75-6.75zm24.188 0c3.717 0 6.75 3.033 6.75 6.75s-3.033 6.7188-6.75 6.7188-6.7188-3.0017-6.7188-6.7188 3.0017-6.75 6.7188-6.75zm24.281 0c3.717 0 6.75 3.033 6.75 6.75s-3.033 6.7188-6.75 6.7188-6.7188-3.0017-6.7188-6.7188 3.0017-6.75 6.7188-6.75zm23.688 0c3.717 0 6.7188 3.033 6.7188 6.75s-3.0017 6.7188-6.7188 6.7188-6.75-3.0017-6.75-6.7188 3.033-6.75 6.75-6.75zm23.781 0c3.717 0 6.75 3.033 6.75 6.75s-3.033 6.7188-6.75 6.7188-6.7188-3.0017-6.7188-6.7188 3.0017-6.75 6.7188-6.75z" fill="#ccc" stroke="#445016"/>
  <path d="m29.548 349.81c-4.7486 0-8.5625 3.8139-8.5625 8.5625v238.56c0 4.7486 3.8139 8.5938 8.5625 8.5938h238.56c4.7486 0 8.5625-3.8452 8.5625-8.5938v-238.56c0-4.7486-3.8139-8.5625-8.5625-8.5625h-238.56zm11.219 10.281c3.717 0 6.7188 3.033 6.7188 6.75s-3.0017 6.7188-6.7188 6.7188-6.7188-3.0017-6.7188-6.7188 3.0017-6.75 6.7188-6.75zm24.25 0c3.717 0 6.7188 3.033 6.7188 6.75s-3.0017 6.7188-6.7188 6.7188-6.75-3.0017-6.75-6.7188 3.033-6.75 6.75-6.75zm23.719 0c3.717 0 6.75 3.033 6.75 6.75s-3.033 6.7188-6.75 6.7188-6.7188-3.0017-6.7188-6.7188 3.0017-6.75 6.7188-6.75zm23.781 0c3.717 0 6.7188 3.033 6.7188 6.75s-3.0017 6.7188-6.7188 6.7188-6.7188-3.0017-6.7188-6.7188 3.0017-6.75 6.7188-6.75zm23.906 0c3.717 0 6.75 3.033 6.75 6.75s-3.033 6.7188-6.75 6.7188-6.7188-3.0017-6.7188-6.7188 3.0017-6.75 6.7188-6.75zm24.062 0c3.717 0 6.7188 3.033 6.7188 6.75s-3.0017 6.7188-6.7188 6.7188-6.75-3.0017-6.75-6.7188 3.033-6.75 6.75-6.75zm24.188 0c3.717 0 6.75 3.033 6.75 6.75s-3.033 6.7188-6.75 6.7188-6.7188-3.0017-6.7188-6.7188 3.0017-6.75 6.7188-6.75zm24.281 0c3.717 0 6.75 3.033 6.75 6.75s-3.033 6.7188-6.75 6.7188-6.7188-3.0017-6.7188-6.7188 3.0017-6.75 6.7188-6.75zm23.688 0c3.717 0 6.7188 3.033 6.7188 6.75s-3.0017 6.7188-6.7188 6.7188-6.75-3.0017-6.75-6.7188 3.033-6.75 6.75-6.75zm23.781 0c3.717 0 6.75 3.033 6.75 6.75s-3.033 6.7188-6.75 6.7188-6.7188-3.0017-6.7188-6.7188 3.0017-6.75 6.7188-6.75z" fill="#89a02c" stroke="#b3b3b3"/>
  <path d="m28.834 348.38c-4.7486 0-8.5625 3.8139-8.5625 8.5625v238.56c0 4.7486 3.8139 8.5938 8.5625 8.5938h238.56c4.7486 0 8.5625-3.8452 8.5625-8.5938v-238.56c0-4.7486-3.8139-8.5625-8.5625-8.5625h-238.56zm11.219 10.281c3.717 0 6.7188 3.033 6.7188 6.75s-3.0017 6.7188-6.7188 6.7188-6.7188-3.0017-6.7188-6.7188 3.0017-6.75 6.7188-6.75zm24.25 0c3.717 0 6.7188 3.033 6.7188 6.75s-3.0017 6.7188-6.7188 6.7188-6.75-3.0017-6.75-6.7188 3.033-6.75 6.75-6.75zm23.719 0c3.717 0 6.75 3.033 6.75 6.75s-3.033 6.7188-6.75 6.7188-6.7188-3.0017-6.7188-6.7188 3.0017-6.75 6.7188-6.75zm23.781 0c3.717 0 6.7188 3.033 6.7188 6.75s-3.0017 6.7188-6.7188 6.7188-6.7188-3.0017-6.7188-6.7188 3.0017-6.75 6.7188-6.75zm23.906 0c3.717 0 6.75 3.033 6.75 6.75s-3.033 6.7188-6.75 6.7188-6.7188-3.0017-6.7188-6.7188 3.0017-6.75 6.7188-6.75zm24.062 0c3.717 0 6.7188 3.033 6.7188 6.75s-3.0017 6.7188-6.7188 6.7188-6.75-3.0017-6.75-6.7188 3.033-6.75 6.75-6.75zm24.188 0c3.717 0 6.75 3.033 6.75 6.75s-3.033 6.7188-6.75 6.7188-6.7188-3.0017-6.7188-6.7188 3.0017-6.75 6.7188-6.75zm24.281 0c3.717 0 6.75 3.033 6.75 6.75s-3.033 6.7188-6.75 6.7188-6.7188-3.0017-6.7188-6.7188 3.0017-6.75 6.7188-6.75zm23.688 0c3.717 0 6.7188 3.033 6.7188 6.75s-3.0017 6.7188-6.7188 6.7188-6.75-3.0017-6.75-6.7188 3.033-6.75 6.75-6.75zm23.781 0c3.717 0 6.75 3.033 6.75 6.75s-3.033 6.7188-6.75 6.7188-6.7188-3.0017-6.7188-6.7188 3.0017-6.75 6.7188-6.75z" fill="#89a02c" stroke="#445016"/>
  <path d="m27.257 347.43c-4.7486 0-8.5625 3.8139-8.5625 8.5625v238.56c0 4.7486 3.8139 8.5938 8.5625 8.5938h238.56c4.7486 0 8.5625-3.8452 8.5625-8.5938v-238.56c0-4.7486-3.8139-8.5625-8.5625-8.5625h-238.56zm11.219 10.281c3.717 0 6.7188 3.033 6.7188 6.75s-3.0017 6.7188-6.7188 6.7188-6.7188-3.0017-6.7188-6.7188 3.0017-6.75 6.7188-6.75zm24.25 0c3.717 0 6.7188 3.033 6.7188 6.75s-3.0017 6.7188-6.7188 6.7188-6.75-3.0017-6.75-6.7188 3.033-6.75 6.75-6.75zm23.719 0c3.717 0 6.75 3.033 6.75 6.75s-3.033 6.7188-6.75 6.7188-6.7188-3.0017-6.7188-6.7188 3.0017-6.75 6.7188-6.75zm23.781 0c3.717 0 6.7188 3.033 6.7188 6.75s-3.0017 6.7188-6.7188 6.7188-6.7188-3.0017-6.7188-6.7188 3.0017-6.75 6.7188-6.75zm23.906 0c3.717 0 6.75 3.033 6.75 6.75s-3.033 6.7188-6.75 6.7188-6.7188-3.0017-6.7188-6.7188 3.0017-6.75 6.7188-6.75zm24.062 0c3.717 0 6.7188 3.033 6.7188 6.75s-3.0017 6.7188-6.7188 6.7188-6.75-3.0017-6.75-6.7188 3.033-6.75 6.75-6.75zm24.188 0c3.717 0 6.75 3.033 6.75 6.75s-3.033 6.7188-6.75 6.7188-6.7188-3.0017-6.7188-6.7188 3.0017-6.75 6.7188-6.75zm24.281 0c3.717 0 6.75 3.033 6.75 6.75s-3.033 6.7188-6.75 6.7188-6.7188-3.0017-6.7188-6.7188 3.0017-6.75 6.7188-6.75zm23.688 0c3.717 0 6.7188 3.033 6.7188 6.75s-3.0017 6.7188-6.7188 6.7188-6.75-3.0017-6.75-6.7188 3.033-6.75 6.75-6.75zm23.781 0c3.717 0 6.75 3.033 6.75 6.75s-3.033 6.7188-6.75 6.7188-6.7188-3.0017-6.7188-6.7188 3.0017-6.75 6.7188-6.75z" fill="#dde9af" stroke="#677821"/>
  <g transform="translate(-180.46 16.07)" stroke="#22280b" stroke-linecap="round" stroke-linejoin="round" stroke-width=".91317">
   <path d="m218.51 316.31a6.4286 8.5714 0 0 1 6.4286 8.5714v19.786a6.4286 8.5714 0 0 1 -6.4286 8.5714 6.4286 8.5714 0 0 1 -6.4286 -8.5714v-19.786a6.4286 8.5714 0 0 1 6.4286 -8.5714" fill="url(#k)"/>
   <path d="m435.3 316.31a6.4286 8.5714 0 0 1 6.4286 8.5714v19.786a6.4286 8.5714 0 0 1 -6.4286 8.5714 6.4286 8.5714 0 0 1 -6.4286 -8.5714v-19.786a6.4286 8.5714 0 0 1 6.4286 -8.5714" fill="url(#j)"/>
   <path d="m411.21 316.31a6.4286 8.5714 0 0 1 6.4286 8.5714v19.786a6.4286 8.5714 0 0 1 -6.4286 8.5714 6.4286 8.5714 0 0 1 -6.4286 -8.5714v-19.786a6.4286 8.5714 0 0 1 6.4286 -8.5714" fill="url(#i)"/>
   <path d="m387.12 316.31a6.4286 8.5714 0 0 1 6.4286 8.5714v19.786a6.4286 8.5714 0 0 1 -6.4286 8.5714 6.4286 8.5714 0 0 1 -6.4286 -8.5714v-19.786a6.4286 8.5714 0 0 1 6.4286 -8.5714" fill="url(#h)"/>
   <path d="m363.03 316.31a6.4286 8.5714 0 0 1 6.4286 8.5714v19.786a6.4286 8.5714 0 0 1 -6.4286 8.5714 6.4286 8.5714 0 0 1 -6.4286 -8.5714v-19.786a6.4286 8.5714 0 0 1 6.4286 -8.5714" fill="url(#g)"/>
   <path d="m338.95 316.31a6.4286 8.5714 0 0 1 6.4286 8.5714v19.786a6.4286 8.5714 0 0 1 -6.4286 8.5714 6.4286 8.5714 0 0 1 -6.4286 -8.5714v-19.786a6.4286 8.5714 0 0 1 6.4286 -8.5714" fill="url(#f)"/>
   <path d="m314.86 316.31a6.4286 8.5714 0 0 1 6.4286 8.5714v19.786a6.4286 8.5714 0 0 1 -6.4286 8.5714 6.4286 8.5714 0 0 1 -6.4286 -8.5714v-19.786a6.4286 8.5714 0 0 1 6.4286 -8.5714" fill="url(#e)"/>
   <path d="m290.77 316.31a6.4286 8.5714 0 0 1 6.4286 8.5714v19.786a6.4286 8.5714 0 0 1 -6.4286 8.5714 6.4286 8.5714 0 0 1 -6.4286 -8.5714v-19.786a6.4286 8.5714 0 0 1 6.4286 -8.5714" fill="url(#d)"/>
   <path d="m266.69 316.31a6.4286 8.5714 0 0 1 6.4286 8.5714v19.786a6.4286 8.5714 0 0 1 -6.4286 8.5714 6.4286 8.5714 0 0 1 -6.4286 -8.5714v-19.786a6.4286 8.5714 0 0 1 6.4286 -8.5714" fill="url(#c)"/>
   <path d="m242.6 316.31a6.4286 8.5714 0 0 1 6.4286 8.5714v19.786a6.4286 8.5714 0 0 1 -6.4286 8.5714 6.4286 8.5714 0 0 1 -6.4286 -8.5714v-19.786a6.4286 8.5714 0 0 1 6.4286 -8.5714" fill="url(#b)"/>
  </g>
  <g transform="translate(0,12)" fill="none" opacity=".3578" stroke="#000">
   <path d="m37.666 402.44h218.61"/>
   <path d="m37.56 425.97h218.61"/>
   <path d="m37.455 449.5h218.61"/>
   <path d="m37.349 473.03h218.61"/>
   <path d="m37.244 496.55h218.61"/>
   <path d="m37.138 520.08h218.61"/>
   <path d="m37.033 543.61h218.61"/>
   <path d="m36.927 567.14h218.61"/>
  </g>
  <path d="m195.71 393.36h60.561" fill="none" opacity=".5" stroke="#000"/>
 </g>
</svg>
