<?xml version="1.0" encoding="UTF-8"?>
<svg viewBox="0 0 437.5 437.5" xmlns="http://www.w3.org/2000/svg">
 <defs>
  <linearGradient id="b" x1=".58416" x2=".84488" y1=".19532" y2=".71875">
   <stop stop-opacity=".3333" offset="0"/>
   <stop stop-opacity="0" offset="1"/>
  </linearGradient>
  <linearGradient id="a" x1=".096" x2="1.336" y1=".41406" y2=".52344">
   <stop stop-color="#faff00" offset="0"/>
   <stop stop-color="#02ff00" offset="1"/>
  </linearGradient>
 </defs>
 <path d="m211.68 23.95c36.629 28.698 170.98 126.68 202.87 162.01-37.227 36.173-156.94 122.28-198.64 154.97-2.8176-36.159-3.3872-57.581-2.8177-84.528-109.78 4.2636-124.72 135.33-11.884 133.88-0.1801 13.548-0.0212 26.767 1.4087 33.811-13.061 0.9198-40.351-0.6624-53.159-0.6007-108.21 3.9351-126.96-189.17-125.42-216.71-1.7822-76.99 105.94-84.211 189.06-82.802 1.7422-36.369-2.8176-69.501-1.4088-100.02z" fill="url(#a)" fill-rule="evenodd" stroke="#006000" stroke-width="12.5"/>
 <path d="m382.15 188.78c-20.662 16.906-128.88 97.642-147.92 109.89-1.444-26.732 4.6119-61.678-15.497-61.987-15.027 0-54.088 7.5241-71.055 17.679-13.897 11.93-40.282 37.53-50.441 75.426-40.97-50.847-2.8795-139.03 42.603-141 26.669 0.1901 213.42-0.1865 242.31 0z" fill="url(#b)" fill-rule="evenodd"/>
</svg>
